<svg width="227" height="227" viewBox="0 0 227 227" fill="none" xmlns="http://www.w3.org/2000/svg">
<path d="M113.5 227C50.7412 227 0 176.259 0 113.5C0 50.7412 50.7412 0 113.5 0C176.259 0 227 50.7412 227 113.5C227 176.259 175.591 227 113.5 227ZM113.5 13.3529C58.0853 13.3529 13.3529 58.0853 13.3529 113.5C13.3529 168.915 58.0853 213.647 113.5 213.647C168.915 213.647 213.647 168.915 213.647 113.5C213.647 58.0853 168.247 13.3529 113.5 13.3529Z" fill="#5D7285"/>
<path d="M47.8695 194.572L35.8423 189.283C39.1832 181.35 49.8741 176.722 61.2332 171.433C72.5922 166.144 86.6241 160.194 86.6241 152.922V143.005C82.615 139.699 75.9331 132.427 74.5968 121.849C71.2559 118.544 65.9104 112.593 65.9104 104.66C65.9104 100.032 67.915 96.0655 69.2513 93.421C67.915 88.1321 66.5786 78.2153 66.5786 70.2818C66.5786 44.4982 84.6195 27.3091 113.351 27.3091C121.369 27.3091 131.392 29.2924 136.738 35.2425C149.433 37.887 160.124 52.4316 160.124 70.2818C160.124 81.5209 158.119 90.7765 156.783 95.4044C158.119 97.3877 159.456 100.693 159.456 104.66C159.456 113.255 154.779 119.205 150.769 121.849C149.433 132.427 143.419 139.038 139.41 142.344V152.922C139.41 158.872 151.438 163.5 162.129 167.466C174.824 172.094 188.188 177.383 192.865 187.961L180.169 192.589C178.165 187.3 167.474 183.333 157.451 180.028C142.751 174.739 126.047 168.789 126.047 153.583V136.394L129.388 134.41C129.388 134.41 137.406 129.121 137.406 118.544V113.916L141.415 111.932C142.083 111.932 145.424 109.949 145.424 104.66C145.424 103.338 144.088 101.354 143.419 100.693L140.747 98.0488L142.083 94.7432C142.083 94.7432 145.424 84.1653 145.424 70.943C145.424 58.3817 138.074 49.126 132.06 49.126H128.051L126.047 45.8204C126.047 43.1759 121.369 40.5315 113.351 40.5315C92.6377 40.5315 79.9422 51.7705 79.9422 70.2818C79.9422 78.8764 83.2831 93.421 83.2831 93.421L83.9513 96.7266L81.2786 100.032C80.6104 100.032 79.2741 102.016 79.2741 104.66C79.2741 107.966 83.2831 111.932 85.2877 113.255L87.9604 115.238V118.544C87.9604 128.46 96.6468 133.749 96.6468 134.41L99.9877 136.394V153.583C99.9877 169.45 82.615 177.383 66.5786 183.994C59.2286 186.639 49.2059 191.267 47.8695 194.572Z" fill="#5D7285"/>
</svg>
